<?xml version="1.0" encoding="UTF-8" standalone="no"?>
<svg
   xmlns:dc="http://purl.org/dc/elements/1.1/"
   xmlns:cc="http://creativecommons.org/ns#"
   xmlns:rdf="http://www.w3.org/1999/02/22-rdf-syntax-ns#"
   xmlns:svg="http://www.w3.org/2000/svg"
   xmlns="http://www.w3.org/2000/svg"
   xmlns:sodipodi="http://sodipodi.sourceforge.net/DTD/sodipodi-0.dtd"
   xmlns:inkscape="http://www.inkscape.org/namespaces/inkscape"
   inkscape:export-ydpi="200"
   inkscape:export-xdpi="200"
   inkscape:export-filename="/Users/lucaagozzino/Desktop/Fantacalcio/LogoL.png"
   sodipodi:docname="drawing.svg"
   inkscape:version="1.0 (4035a4f, 2020-05-01)"
   id="svg8"
   version="1.1"
   viewBox="0 0 210 297"
   height="297mm"
   width="210mm">
  <defs
     id="defs2" />
  <sodipodi:namedview
     inkscape:window-maximized="1"
     inkscape:window-y="23"
     inkscape:window-x="0"
     inkscape:window-height="1035"
     inkscape:window-width="1920"
     showguides="false"
     showgrid="false"
     inkscape:document-rotation="0"
     inkscape:current-layer="g1253"
     inkscape:document-units="mm"
     inkscape:cy="482.32986"
     inkscape:cx="-1028.2599"
     inkscape:zoom="0.19"
     inkscape:pageshadow="2"
     inkscape:pageopacity="0.0"
     borderopacity="1.0"
     bordercolor="#666666"
     pagecolor="#ffffff"
     id="base" />
  <metadata
     id="metadata5">
    <rdf:RDF>
      <cc:Work
         rdf:about="">
        <dc:format>image/svg+xml</dc:format>
        <dc:type
           rdf:resource="http://purl.org/dc/dcmitype/StillImage" />
        <dc:title />
      </cc:Work>
    </rdf:RDF>
  </metadata>
  <g
     id="layer1"
     inkscape:groupmode="layer"
     inkscape:label="Layer 1">
    <g
       inkscape:export-ydpi="400"
       inkscape:export-xdpi="400"
       transform="translate(682.34649,-22.280702)"
       id="g1253">
      <rect
         style="fill:#3365b1;fill-opacity:1;stroke-width:0;stroke-linecap:round;stroke-linejoin:round;paint-order:stroke fill markers"
         id="rect851"
         width="158.69324"
         height="150.82027"
         x="-485.64029"
         y="411.67059"
         ry="0"
         transform="matrix(0.72908528,0.68442286,-0.67046795,0.74193849,0,0)"
         inkscape:transform-center-x="436.30241"
         inkscape:transform-center-y="-33.936721"
         inkscape:export-xdpi="500"
         inkscape:export-ydpi="500" />
      <path
         style="fill:#ffd900;stroke:#000000;stroke-width:0.26458300000000001px;stroke-linecap:butt;stroke-linejoin:miter;stroke-opacity:1;fill-opacity:1"
         d="m -785.39473,93.300437 12.94996,226.481863 329.51393,-11.94663 62.76637,-210.3576 -159.14989,33.72581 -33.02117,-8.66002 -43.16886,71.01973 -106.24327,-62.41398 z"
         id="path849"
         inkscape:export-xdpi="500"
         inkscape:export-ydpi="500" />
      <path
         inkscape:export-ydpi="500"
         inkscape:export-xdpi="500"
         d="m -612.33797,-122.76002 -4.0887,4.62216 c -27.5633,31.15855 -58.6594,59.275025 -91.2203,82.479221 -50.9876,36.33584578 -108.1578,62.20451 -173.3664,78.44626 l -4.2449,1.057342 0.1896,3.313741 c 1.356,23.638526 3.5036,44.818063 6.7101,66.174416 11.7176,78.04211 35.1747,154.19744 69.2901,224.95845 70.81695,147.99306 142.83567,186.73241 200.46725,201.76355 63.95186,-28.21229 127.21087,-72.85533 180.66005,-177.35602 0.5539,0.19331 9.89655,-18.22517 17.45199,-34.40623 39.24469,-84.04834 64.58631,-181.02009 70.92379,-271.393248 0.31403,-4.477985 0.64621,-9.244943 0.7382,-10.593486 l 0.16737,-2.452247 -7.65971,-1.93669 c -85.38364,-21.591601 -155.75384,-59.218054 -220.26214,-117.771494 -11.6599,-10.583605 -30.3193,-29.553705 -42.1485,-42.850455 z m -160.1068,442.54233 c -11.3416,-13.22822 -42.4109,-241.551053 -59.5382,-245.984119 74.7858,-30.978293 192.81093,-69.1691871 223.42063,-100.74727 54.4763,43.175025 155.39977,70.983579 199.51763,101.52452 9.82646,36.179839 -27.66733,189.533649 -33.88613,233.260249 -86.1125,8.52574 -259.60723,22.91314 -329.51393,11.94662 z m 164.3885,105.4148 c -15.0914,0.005 -32.4289,0.18959 -39.1701,0.49156 -31.7107,1.42051 -59.8609,3.94486 -93.9877,8.42801 -5.4208,0.71211 -10.0279,1.29684 -10.2381,1.30007 -0.4557,0.006 0.6304,1.56553 7.3606,10.56782 37.4307,50.06699 80.63,90.66683 126.4328,118.82439 2.8282,1.73865 5.1988,3.16095 5.2683,3.16418 0.4235,0.0108 12.1856,-7.33581 18.4429,-11.51857 11.3744,-7.6034 23.0797,-16.40233 34.2924,-25.77734 30.0472,-25.12262 59.0452,-56.55472 84.6452,-91.75034 2.1773,-2.99336 2.2905,-3.21753 1.6901,-3.3511 -0.7242,-0.16113 -10.3473,-1.59586 -15.3557,-2.28934 -1.8069,-0.25017 -4.4423,-0.64017 -5.8564,-0.86652 -1.4141,-0.22637 -6.492,-0.86225 -11.2842,-1.41332 -26.3262,-3.02738 -50.6503,-4.72824 -80.2753,-5.61256 -4.6637,-0.13921 -12.9099,-0.20016 -21.9648,-0.19694 z"
         style="fill:#3365b1;fill-opacity:1;stroke:none;stroke-width:3.23918;stroke-miterlimit:4;stroke-dasharray:none;stroke-opacity:1"
         id="path1242"
         sodipodi:nodetypes="csssccscccsssccssccccccccsscsscssssssssc" />
      <path
         transform="scale(0.26458333)"
         id="path1146"
         style="fill:#000000;fill-opacity:1;stroke:#ffd900;stroke-width:11.3386;stroke-miterlimit:4;stroke-dasharray:none;stroke-opacity:1"
         d="m -2314.2402,-367.70703 -14.3125,16.17969 c -96.4842,109.0691 -205.3346,207.48958 -319.3125,288.71484 -178.4799,127.192019 -378.6016,217.74413 -606.8614,274.59766 l -14.8593,3.70117 0.664,11.59961 c 4.7466,82.74561 12.2639,156.88365 23.4883,231.64062 41.017,273.18293 123.1273,539.76131 242.5469,787.45704 13.6197,28.2494 20.3555,41.5987 37.2109,73.75 3.5321,6.7375 6.9807,12.25 7.6641,12.25 0.6834,0 9.5449,-1.5318 19.6933,-3.4043 19.0549,-3.5159 27.2853,-4.8482 71.4532,-11.5684 0.9759,-0.1484 1.9377,-0.288 2.9121,-0.4355 1.7138,-2.0242 3.3698,-3.7261 4.5644,-3.8242 0.5775,-0.047 1.0472,0.2769 1.3653,1.1152 0.2221,0.5855 0.423,1.1546 0.6308,1.7285 108.3978,-16.229 207.9083,-26.583 318.0274,-33.0879 257.9367,-15.2365 541.9287,-3.0978 774.5,33.1055 12.65,1.9692 26.1647,3.9498 30.0332,4.4023 6.8794,0.8048 63.8926,10.6484 66.0644,11.4063 1.939,0.6767 34.6424,-63.7964 61.0899,-120.4375 137.3743,-294.2075 226.0815,-633.65278 248.2656,-950.00001 1.0992,-15.67499 2.262,-32.36151 2.584,-37.08203 l 0.5859,-8.58398 -26.8125,-6.7793 c -298.8816,-75.58044 -545.2093,-207.2901705 -771.0176,-412.2539 -40.8151,-37.04743 -106.1316,-103.45144 -147.539,-149.9961 z m 0.375,354.412108 c 1.1576,0.02454 1.7713,3.20545 4.0156,20.7695314 6.4776,50.6951456 28.326,102.6045006 61.3281,145.7089806 11.4407,14.94291 36.5916,40.53509 51.1563,52.05469 22.9502,18.15208 50.8103,34.32843 77.2812,44.86914 26.456,10.53485 49.0291,16.06699 83.9688,20.58399 6.1547,0.79569 6.4587,3.16014 0.5,3.88867 -30.2313,3.69615 -43.565,6.53654 -65.25,13.89648 -17.4746,5.93087 -24.6467,8.84852 -40,16.27149 -72.2023,34.9081 -128.7228,98.21557 -154.9922,173.60547 -7.5389,21.63549 -12.5867,44.61558 -16.0528,73.08007 -0.8649,7.10381 -3.0987,6.2517 -3.9316,-1.5 -2.7701,-25.7814 -6.7624,-44.40291 -14.5254,-67.75 -13.0865,-39.3572 -30.9012,-70.79569 -58.084,-102.5 -39.701,-46.30479 -96.3609,-81.4549 -156.3144,-96.97265 -16.7378,-4.33222 -21.3619,-5.21336 -36.4727,-6.95117 -12.369,-1.42249 -16.0866,-2.72545 -13.1191,-4.60157 0.8204,-0.51867 3.1433,-0.95104 5.1621,-0.95898 5.6758,-0.0237 31.128,-4.5567 44.3945,-7.90625 111.1785,-28.07039 197.9253,-117.67207 222.7774,-230.109376 2.2696,-10.269041 3.9473,-20.650717 6.3828,-39.5000002 0.4263,-3.2999998 1.2254,-5.9902318 1.7754,-5.9785158 z m -547.5254,508.464842 66.7617,0.25781 66.7637,0.25586 0.2519,248.25 0.252,248.25 h 156.998 156.9981 v 62.00001 62 l -184.75,-0.1172 c -102.2042,-0.065 -187.136,-0.513 -190.0879,-1.0039 -19.343,-3.2162 -40.4552,-15.644 -53.7071,-31.6133 -6.2018,-7.4736 -14.2578,-23.1348 -17.1113,-33.2656 -1.7511,-6.217 -1.8422,-18.4396 -2.0996,-280.75587 z m 823.0371,0.71875 c 8.3068,-0.10129 16.7043,0.29398 21.9883,1.22461 26.6086,4.68662 47.4439,18.86392 63.2441,43.0332 7.4435,11.3861 11.0183,19.42139 31.5957,71.03711 20.6741,51.85841 71.6268,177.76499 152.2617,376.24414 28.5439,70.25907 51.8985,127.97147 51.8985,128.24997 0,0.2782 -31.8388,0.5059 -70.752,0.5059 h -70.7519 l -88.4727,-229.00001 c -48.6604,-125.94994 -88.7093,-228.99962 -88.998,-228.98828 -0.3757,0.008 -75.7304,191.40219 -81.5899,207.23047 -0.6076,1.64134 2.6925,1.75698 57.1387,2 l 57.7812,0.25781 21.8086,56.5 c 11.9947,31.07501 21.811,56.61117 21.8223,56.7461 0.01,0.13493 -46.1465,0.35978 -102.5645,0.5 l -102.5781,0.2539 -26.1719,67.22661 -26.1718,67.2265 -68.3106,0.024 c -37.57,0.013 -68.0936,-0.3229 -67.832,-0.7461 0.5085,-0.823 217.2695,-536.62064 222.1953,-549.23051 15.4785,-39.62441 38.1455,-61.50179 71.0098,-68.54101 4.9262,-1.05515 13.1423,-1.65261 21.4492,-1.75391 z M -2299.252,1550.3926 c -52.8268,0.019 -113.516,0.6637 -137.1132,1.7207 -111.0019,4.9724 -209.5404,13.8088 -329,29.5019 -18.975,2.4927 -35.1022,4.5395 -35.8379,4.5508 -1.595,0.022 2.2068,5.4801 25.7656,36.9922 131.0242,175.2573 282.2416,317.3752 442.5723,415.9395 9.8999,6.0861 18.1983,11.0648 18.4414,11.0761 1.4826,0.036 42.6551,-25.6787 64.5586,-40.3203 39.8157,-26.6153 80.7893,-57.4156 120.039,-90.2324 105.179,-87.9406 206.685,-197.9673 296.2969,-321.168 7.6214,-10.4781 8.0176,-11.2628 5.916,-11.7304 -2.5349,-0.564 -36.2203,-5.5862 -53.7519,-8.0137 -6.325,-0.8757 -15.55,-2.2409 -20.5,-3.0332 -4.95,-0.7924 -22.725,-3.0183 -39.5,-4.9473 -92.1537,-10.5972 -177.299,-16.551 -281,-19.6465 -16.3251,-0.4873 -45.1907,-0.7007 -76.8868,-0.6894 z"
         inkscape:export-xdpi="500"
         inkscape:export-ydpi="500" />
      <g
         id="g1240"
         transform="translate(-85.461724,-32.808348)"
         style="stroke:#ffd900;stroke-width:3;stroke-miterlimit:4;stroke-dasharray:none;stroke-opacity:1;fill:#ffd900;fill-opacity:1"
         inkscape:export-xdpi="500"
         inkscape:export-ydpi="500">
        <text
           transform="rotate(-6.3911849)"
           id="text1196"
           y="369.70111"
           x="-685.28278"
           style="font-size:8.32713000000000036px;line-height:1.25;font-family:sans-serif;fill:#ffd900;fill-opacity:1;stroke:#ffd900;stroke-width:3;stroke-miterlimit:4;stroke-dasharray:none;stroke-opacity:1"
           xml:space="preserve"><tspan
             style="font-style:normal;font-variant:normal;font-weight:bold;font-stretch:normal;font-size:78.06659999999999400px;font-family:Futura;-inkscape-font-specification:'Futura, Bold';font-variant-ligatures:normal;font-variant-caps:normal;font-variant-numeric:normal;font-variant-east-asian:normal;fill:#ffd900;fill-opacity:1;stroke:#ffd900;stroke-width:3;stroke-miterlimit:4;stroke-dasharray:none;stroke-opacity:1"
             y="369.70111"
             x="-685.28278"
             id="tspan1194"
             sodipodi:role="line">X</tspan></text>
        <text
           xml:space="preserve"
           style="font-size:8.32713000000000036px;line-height:1.25;font-family:sans-serif;fill:#ffd900;fill-opacity:1;stroke:#ffd900;stroke-width:3;stroke-miterlimit:4;stroke-dasharray:none;stroke-opacity:1"
           x="-424.37924"
           y="478.44885"
           id="text1196-3"
           transform="rotate(5.2379093)"><tspan
             sodipodi:role="line"
             id="tspan1194-8"
             x="-424.37924"
             y="478.44885"
             style="font-style:normal;font-variant:normal;font-weight:bold;font-stretch:normal;font-size:78.06659999999999400px;font-family:Futura;-inkscape-font-specification:'Futura, Bold';font-variant-ligatures:normal;font-variant-caps:normal;font-variant-numeric:normal;font-variant-east-asian:normal;fill:#ffd900;fill-opacity:1;stroke:#ffd900;stroke-width:3;stroke-miterlimit:4;stroke-dasharray:none;stroke-opacity:1">Z</tspan></text>
        <text
           xml:space="preserve"
           style="font-size:8.32713000000000036px;line-height:1.25;font-family:sans-serif;fill:#ffd900;fill-opacity:1;stroke:#ffd900;stroke-width:3;stroke-miterlimit:4;stroke-dasharray:none;stroke-opacity:1"
           x="-550.50818"
           y="438.0145"
           id="text1196-1"
           transform="rotate(0.20501439)"><tspan
             sodipodi:role="line"
             id="tspan1194-0"
             x="-550.50818"
             y="438.0145"
             style="font-style:normal;font-variant:normal;font-weight:bold;font-stretch:normal;font-size:78.06659999999999400px;font-family:Futura;-inkscape-font-specification:'Futura, Bold';font-variant-ligatures:normal;font-variant-caps:normal;font-variant-numeric:normal;font-variant-east-asian:normal;fill:#ffd900;fill-opacity:1;stroke:#ffd900;stroke-width:3;stroke-miterlimit:4;stroke-dasharray:none;stroke-opacity:1">Y</tspan></text>
      </g>
      <path
         id="path865"
         d="m -610.23882,507.77194 c 1.66149,-0.58802 4.23507,-1.83483 4.42643,-2.14444 0.0646,-0.10461 -0.21606,-0.36039 -0.62382,-0.5684 -0.95286,-0.48612 -3.65929,-2.507 -4.28456,-3.19928 -0.43116,-0.47736 -0.44132,-0.52177 -0.0964,-0.42151 0.77483,0.22527 6.97091,0.56056 8.54457,0.46239 l 1.61896,-0.10101 0.95941,-0.93572 c 1.19685,-1.16728 3.62968,-3.98998 4.91371,-5.70115 0.53461,-0.71246 1.0272,-1.24018 1.09464,-1.17274 0.18201,0.182 0.13234,5.0299 -0.0617,6.03458 -0.0922,0.47713 -0.14524,0.89022 -0.11786,0.91797 0.0275,0.0278 0.87881,-0.16492 1.89203,-0.42818 2.08162,-0.54084 4.21979,-1.35283 5.98421,-2.27253 0.65868,-0.34335 1.26891,-0.65589 1.35606,-0.69453 0.41219,-0.18279 -1.87581,1.77998 -3.28705,2.81983 -6.5624,4.83533 -13.53805,7.30786 -22.12574,7.84251 l -1.73502,0.10802 z m -9.9303,-0.50551 c -2.35223,-0.86724 -4.29532,-2.19941 -6.74528,-4.6245 l -1.63864,-1.62202 -2.21699,-0.52268 c -1.21934,-0.28747 -2.82424,-0.73723 -3.56645,-0.99944 -1.92255,-0.67924 -4.8951,-2.26414 -5.89449,-3.14281 l -0.85286,-0.74983 1.45113,0.11381 c 1.57697,0.1237 3.60877,-0.1458 5.51818,-0.73191 l 1.18586,-0.36401 -1.28631,-2.55248 c -1.0609,-2.10519 -2.01686,-4.30099 -3.03466,-6.97043 -0.0775,-0.20325 0.93665,0.53512 2.25364,1.64082 2.21721,1.86148 5.33052,4.26192 6.58861,5.08 l 0.53123,0.34542 2.19778,-1.47603 c 1.20878,-0.81181 3.26865,-2.37343 4.57748,-3.47024 1.30883,-1.09682 2.40124,-1.97566 2.42757,-1.95297 0.0263,0.0227 -0.16331,1.29206 -0.42142,2.82083 -0.4742,2.80855 -1.07165,7.5477 -1.07208,8.50403 -1.9e-4,0.48422 0.28584,0.66182 4.22889,2.62536 l 4.22912,2.106 -1.19282,0.117 c -0.65605,0.0643 -2.55915,0.17564 -4.22913,0.24731 l -3.03629,0.13029 v 0.62864 c 0,0.90819 0.49779,3.37388 0.85256,4.22297 0.16726,0.40033 0.30412,0.76065 0.30412,0.80072 0,0.13235 -0.47212,0.0493 -1.15875,-0.20385 z m 27.93507,-15.61327 c 0.73693,-1.01745 1.96408,-2.86341 2.72698,-4.10214 l 1.38711,-2.25222 -1.22759,-1.05514 c -1.52097,-1.30731 -4.53843,-4.34521 -5.94872,-5.98905 -1.03511,-1.2065 -1.04566,-1.2307 -0.48196,-1.10387 0.96939,0.21811 8.17107,0.38135 10.1744,0.23062 l 1.8868,-0.14196 0.87655,-1.86108 c 1.15297,-2.44796 3.56988,-8.09022 4.13476,-9.65257 0.39339,-1.08804 0.46449,-1.18086 0.59067,-0.77113 0.19034,0.61804 0.6812,4.67128 0.94298,7.78651 0.11561,1.37565 0.24246,2.53345 0.2819,2.5729 0.21748,0.21747 2.6802,-1.38955 3.72344,-2.42969 l 1.21484,-1.21125 -0.12605,0.72929 c -0.21699,1.25542 -1.42077,4.70915 -2.21441,6.35331 -0.4183,0.86659 -1.22162,2.26444 -1.78514,3.10635 -0.90712,1.35526 -1.05258,1.71364 -1.26885,3.12644 -0.29586,1.93265 -1.02991,4.53864 -1.68184,5.97076 l -0.48054,1.05561 -0.51249,-0.67004 c -0.61857,-0.80871 -1.6744,-1.84349 -2.29774,-2.25192 -0.43145,-0.28269 -0.51254,-0.26165 -1.48859,0.38641 -2.24297,1.48925 -6.62524,3.35512 -9.1345,3.88926 l -0.63189,0.13451 z m -55.74835,-6.23169 c -0.78968,-2.23324 -1.13367,-4.21487 -1.23984,-7.14238 l -0.10697,-2.94939 -1.00585,-1.50276 c -0.55322,-0.82651 -1.14332,-1.9062 -1.31134,-2.39931 l -0.30549,-0.89655 0.86096,-0.59235 c 0.47353,-0.3258 1.32232,-0.7964 1.8862,-1.04577 l 1.02523,-0.4534 0.62648,-1.79874 c 0.5896,-1.6928 2.13383,-4.91401 3.16585,-6.60381 l 0.46212,-0.75667 0.13211,1.4314 c 0.17592,1.90608 0.71153,6.23558 0.78064,6.31017 0.0302,0.0326 0.95357,-0.0723 2.05198,-0.23299 1.72768,-0.25279 6.64168,-0.69066 7.77722,-0.69298 0.28516,-5.9e-4 0.11379,0.22971 -0.67474,0.90667 -1.83008,1.57118 -4.79713,4.52558 -6.19954,6.17312 l -1.3503,1.5863 0.81345,2.4621 c 0.4474,1.35415 1.278,3.49724 1.84577,4.76241 0.56777,1.26518 1.00828,2.32435 0.9789,2.35373 -0.0959,0.0959 -4.051,-2.44003 -5.47695,-3.51175 -0.76537,-0.57524 -1.43673,-1.0459 -1.49191,-1.0459 -0.34508,0 -2.61078,5.42353 -2.61078,6.24958 0,0.59497 -0.31393,0.29218 -0.6332,-0.61073 z m 28.99236,-2.55565 c -0.56525,-2.45497 -1.15008,-6.02564 -1.53043,-9.34379 l -0.32628,-2.8465 -3.2748,-1.1992 c -3.80234,-1.39239 -8.1548,-3.16708 -8.28534,-3.37832 -0.0918,-0.14854 5.64277,-2.74824 9.37376,-4.24946 l 2.04984,-0.82479 0.1319,-1.75369 c 0.27246,-3.62249 1.27424,-9.86619 1.81948,-11.3401 0.12132,-0.32798 0.3655,-0.0271 1.46102,1.80098 2.20578,3.68054 5.16233,8.07462 5.43299,8.07462 0.14071,0 1.05932,-0.25589 2.04136,-0.56863 4.30063,-1.36959 11.93261,-3.37471 12.33474,-3.24066 0.0992,0.0331 -0.58818,1.05549 -1.52748,2.27206 -2.96129,3.83543 -6.99753,9.35229 -6.99753,9.56442 0,0.29567 4.50695,5.55346 7.45464,8.69657 1.21811,1.29887 2.0946,2.36158 1.94776,2.36158 -0.50132,0 -7.56411,-1.57323 -10.928,-2.4342 -1.84637,-0.47257 -3.48137,-0.83389 -3.63334,-0.80295 -0.31342,0.0638 -3.3816,4.80729 -5.48561,8.4809 -0.77235,1.34853 -1.46156,2.4554 -1.53159,2.45968 -0.07,0.004 -0.30722,-0.77354 -0.52709,-1.72852 z m 39.21065,-21.76085 c -0.84823,-1.54116 -2.46303,-4.19616 -3.58842,-5.89999 l -2.04616,-3.09791 -2.29141,0.15159 c -1.91303,0.12655 -4.29719,0.46787 -8.72032,1.24841 -0.6378,0.11254 -0.62456,0.089 1.11615,-1.9868 0.96889,-1.15538 2.37606,-2.99909 3.12703,-4.09715 l 1.36542,-1.99643 -1.61404,-1.63928 c -2.02519,-2.05683 -4.99221,-4.6327 -7.05245,-6.12272 -0.87052,-0.62957 -1.5586,-1.16886 -1.52904,-1.19841 0.0936,-0.0936 3.23982,0.50138 4.8451,0.91626 2.13558,0.55194 3.97541,1.18347 6.03625,2.07194 l 1.75353,0.75599 0.20903,-0.59963 c 0.11498,-0.3298 0.26361,-1.24527 0.33032,-2.03438 l 0.12128,-1.43473 1.00658,1.08141 c 1.12663,1.21041 3.11004,4.09215 3.94009,5.72466 0.36368,0.71527 1.31175,1.84647 2.8389,3.38728 2.28161,2.302 4.09877,4.73442 5.26953,7.05368 l 0.55764,1.10468 -1.19887,-0.62379 c -1.12045,-0.58301 -3.72438,-1.42342 -3.87398,-1.25035 -0.0369,0.0426 0.0904,0.98844 0.28289,2.10175 0.39394,2.27879 0.81667,7.20741 0.72052,8.40045 -0.0631,0.78417 -0.0661,0.7805 -1.60557,-2.01653 z m -71.4222,-1.0212 c -0.007,-0.70197 1.18076,-4.85931 1.92697,-6.74454 1.36824,-3.45673 3.5062,-7.11484 5.95705,-10.19271 1.14047,-1.43225 4.55653,-4.94346 5.659,-5.81662 l 0.74722,-0.59181 -0.99637,1.52121 c -0.82276,1.25616 -2.88693,5.20101 -2.88693,5.51724 0,0.0485 0.58558,-0.023 1.30128,-0.15891 0.71569,-0.136 1.99528,-0.30648 2.84352,-0.37884 l 1.54225,-0.13157 -1.34948,1.02359 c -1.62419,1.23197 -3.43518,2.74618 -5.04606,4.2191 l -1.19044,1.0885 -0.4099,2.11118 c -0.22545,1.16114 -0.50943,3.30118 -0.63107,4.75565 l -0.22118,2.64446 -0.62218,-0.8751 c -0.34219,-0.48132 -0.97999,-1.56288 -1.41732,-2.4035 -0.43733,-0.84061 -0.85583,-1.52552 -0.92998,-1.52203 -0.18038,0.009 -2.15232,2.71452 -2.94555,4.04204 -0.34845,0.58317 -0.7897,1.32056 -0.98057,1.63866 -0.22717,0.3786 -0.34812,0.46632 -0.35026,0.254 z m 31.69872,-13.34958 c -0.20625,-0.25763 -0.9048,-1.10346 -1.55231,-1.87963 -0.97554,-1.16936 -2.77213,-3.76176 -3.65304,-5.2712 -0.19119,-0.32759 -0.37311,-0.29369 -2.98811,0.55696 -1.53149,0.49817 -3.76164,1.33007 -4.95591,1.84866 l -2.17139,0.94287 0.41332,-0.58047 c 0.98273,-1.38012 4.56593,-4.6682 7.0081,-6.43091 l 0.54031,-0.38999 -0.39796,-0.78006 c -0.21887,-0.42902 -0.74984,-1.22521 -1.1799,-1.76929 -0.43008,-0.54409 -0.71825,-1.0276 -0.6404,-1.07448 0.49238,-0.29648 3.5588,-0.57641 6.71916,-0.61337 3.38846,-0.0396 3.80848,-0.0836 5.2051,-0.54515 3.51562,-1.16178 7.65421,-1.85386 11.06188,-1.84984 l 2.0242,0.002 -1.40196,0.59253 c -1.4381,0.6078 -4.88004,2.79272 -5.002,3.17524 -0.0382,0.11964 0.46502,0.36287 1.14372,0.55289 1.63408,0.45748 5.21475,1.85073 6.62208,2.57668 l 1.14432,0.59027 -2.33359,0.009 c -2.47934,0.01 -6.16032,0.25749 -9.07794,0.6107 -1.74442,0.2112 -1.77999,0.22595 -2.24757,0.93253 -1.28446,1.94094 -2.86957,5.73187 -3.40916,8.1533 -0.13586,0.60967 -0.30303,1.10849 -0.37149,1.10849 -0.0684,0 -0.29321,-0.21078 -0.49946,-0.46841 z"
         style="fill:#ffd900;fill-opacity:1;stroke-width:0.192781" />
    </g>
    <rect
       inkscape:export-ydpi="500"
       inkscape:export-xdpi="500"
       y="-149.67413"
       x="-279.61255"
       height="700"
       width="700"
       id="rect1255"
       style="fill:none;fill-opacity:1;stroke:#000000;stroke-width:0.3;stroke-linecap:round;stroke-linejoin:round;stroke-miterlimit:4;stroke-dasharray:none;stroke-opacity:1;paint-order:stroke fill markers" />
  </g>
</svg>
