<?xml version="1.0" encoding="UTF-8" standalone="no"?>
<svg
   xmlns:dc="http://purl.org/dc/elements/1.1/"
   xmlns:cc="http://creativecommons.org/ns#"
   xmlns:rdf="http://www.w3.org/1999/02/22-rdf-syntax-ns#"
   xmlns:svg="http://www.w3.org/2000/svg"
   xmlns="http://www.w3.org/2000/svg"
   xmlns:sodipodi="http://sodipodi.sourceforge.net/DTD/sodipodi-0.dtd"
   xmlns:inkscape="http://www.inkscape.org/namespaces/inkscape"
   sodipodi:docname="drawing2.svg"
   inkscape:version="1.0 (4035a4f, 2020-05-01)"
   id="svg8"
   version="1.1"
   viewBox="0 0 210 297"
   height="297mm"
   width="210mm">
  <defs
     id="defs2" />
  <sodipodi:namedview
     inkscape:window-maximized="1"
     inkscape:window-y="25"
     inkscape:window-x="0"
     inkscape:window-height="1027"
     inkscape:window-width="1920"
     showgrid="false"
     inkscape:document-rotation="0"
     inkscape:current-layer="g841"
     inkscape:document-units="mm"
     inkscape:cy="304.19419"
     inkscape:cx="595.48294"
     inkscape:zoom="0.26"
     inkscape:pageshadow="2"
     inkscape:pageopacity="0.0"
     borderopacity="1.0"
     bordercolor="#666666"
     pagecolor="#ffffff"
     id="base" />
  <metadata
     id="metadata5">
    <rdf:RDF>
      <cc:Work
         rdf:about="">
        <dc:format>image/svg+xml</dc:format>
        <dc:type
           rdf:resource="http://purl.org/dc/dcmitype/StillImage" />
        <dc:title></dc:title>
      </cc:Work>
    </rdf:RDF>
  </metadata>
  <g
     id="layer1"
     inkscape:groupmode="layer"
     inkscape:label="Layer 1">
    <g
       transform="matrix(0.26458333,0,0,0.26458333,19.201152,44.903572)"
       id="g841">
      <g
         inkscape:export-ydpi="800"
         inkscape:export-xdpi="800"
         id="g1114">
        <rect
           style="opacity:0;fill:#3365b1;fill-opacity:1;stroke:#464b52;stroke-width:0.152343;stroke-linecap:round;stroke-linejoin:round;stroke-miterlimit:4;stroke-dasharray:none;stroke-opacity:1;paint-order:stroke fill markers"
           id="rect1096"
           width="521.13782"
           height="521.13776"
           x="-34.591553"
           y="403.34244" />
        <g
           id="g1094"
           inkscape:export-xdpi="50"
           inkscape:export-ydpi="50"
           transform="matrix(0.43326953,0,0,0.43326953,0.75066174,520.31754)">
          <g
             transform="matrix(2.2961642,0,0,2.2961642,-67.3207,-257.53202)"
             id="g925">
            <path
               id="path923"
               fill="#464b52"
               d="m 256,512 c -1.809,0 -3.616,-0.327 -5.335,-0.98 C 196.492,490.405 151.128,456.769 115.833,411.047 87.825,374.764 66.153,330.906 51.419,280.693 26.518,195.826 29.985,122.728 30.146,119.658 c 0.28,-5.394 3.44,-10.221 8.271,-12.636 L 249.292,1.583 c 4.223,-2.111 9.193,-2.111 13.416,0 l 210.875,105.438 c 4.831,2.415 7.991,7.242 8.271,12.636 0.16,3.07 3.628,76.168 -21.273,161.035 -14.734,50.214 -36.406,94.071 -64.414,130.354 -35.295,45.722 -80.659,79.357 -134.832,99.973 C 259.616,511.672 257.808,512 256,512 Z" />
          </g>
          <path
             style="stroke-width:2.29616"
             id="path927"
             fill="#292b2f"
             d="M 1020.1036,-11.794231 535.9,-253.89719 c -4.8472,-2.42246 -10.12608,-3.63483 -15.40266,-3.63483 V 918.10405 c 4.15146,0 8.30292,-0.75085 12.24774,-2.25024 124.3901,-47.33543 228.55329,-124.5692 309.59641,-229.55442 64.31096,-83.31173 114.07343,-184.0169 147.90512,-299.31419 57.17679,-194.86857 49.21599,-362.71358 48.84629,-369.762804 -0.6406,-12.387806 -7.8965,-23.4713906 -18.9893,-29.016627 z" />
          <path
             style="fill:#ffd900;fill-opacity:1;stroke-width:2.29795;stroke-miterlimit:4;stroke-dasharray:none"
             d="m 520.49734,767.99232 c -5.22607,0 -10.45674,-1.18942 -15.2649,-3.56824 C 351.86704,688.59555 244.16775,551.02317 185.12878,355.53234 155.60011,257.75478 144.93901,165.6189 141.19627,105.54665 140.33521,91.751293 147.80692,78.780262 160.16947,72.598988 L 505.09696,-99.863609 c 9.6967,-4.844911 21.10864,-4.847201 30.80534,0 L 880.83209,72.598988 c 12.36254,6.178978 19.83426,19.154602 18.9732,32.949952 -3.74504,60.07684 -14.40613,152.21503 -43.9348,249.9834 -59.03898,195.49083 -166.73826,333.06321 -320.10366,408.89174 -4.81506,2.37882 -10.04343,3.56824 -15.26949,3.56824 z"
             fill="#faf139"
             id="path929" />
          <path
             sodipodi:nodetypes="csccsscccscccc"
             style="opacity:1;fill:#3365b1;fill-opacity:1;stroke:#464b52;stroke-width:15.8467;stroke-miterlimit:4;stroke-dasharray:none;stroke-opacity:1"
             id="path857"
             fill-rule="evenodd"
             fill="#00ccf2"
             d="m 559.47266,296.01895 v 171.455 c 0,2.442 -0.5422,4.756 -1.7172,6.812 -1.175,1.928 -3.0728,3.599 -5.6936,4.884 -2.6207,1.157 -6.2357,2.185 -10.755,2.956 -4.5186,0.771 -10.1221,1.157 -16.81,1.157 -6.8686,0 -12.5622,-0.385 -16.9908,-1.157 -4.3378,-0.771 -7.9535,-1.799 -10.6643,-2.956 -2.8014,-1.285 -4.6993,-2.956 -5.6936,-4.884 -1.0843,-2.056 -1.6271,-4.37 -1.6271,-6.812 v -171.455 c 36.6022,-90.353 0,0 36.6022,-90.353 h 0.5422 c 32.8072,90.353 13.7231,37.91888 32.8072,90.353 z"
             clip-rule="evenodd" />
          <path
             sodipodi:nodetypes="cccsccccccscccccscccccccscccc"
             style="opacity:1;fill:#3365b1;fill-opacity:1;stroke:#464b52;stroke-width:18.8976;stroke-miterlimit:4;stroke-dasharray:none;stroke-opacity:1"
             clip-rule="evenodd"
             d="m 697.36144,414.27133 c 24.4109,40.90835 1.5008,67.45447 -27.9358,67.48569 -11.696,0 -21.078,-0.257 -27.762,-0.771 -6.812,-0.514 -12.082,-1.285 -15.938,-2.442 -3.856,-1.157 -6.684,-2.699 -8.483,-4.755 -1.799,-1.928 -3.213,-4.499 -4.499,-7.454 l -91.768,-175.953 -90.99699,175.953 c -1.542,2.956 -3.084,5.526 -4.884,7.454 -1.8,2.056 -4.627,3.599 -8.483,4.755 -3.985,1.157 -9.383,1.928 -16.323,2.442 -6.94,0.514 -16.066,0.771 -27.376,0.771 -38.86333,1.58967 -37.32998,-26.1593 -18.83518,-60.79812 L 452.46964,229.33102 357.78975,51.182098 c -24.59002,-41.6716246 -2.79668,-61.403458 27.9789,-61.425081 11.825,0 21.207,0.2570004 28.147,0.7710004 6.94,0.514 12.338,1.285 16.323,2.442 4.113,1.157 6.941,2.699 8.483,4.755 1.671,1.92800002 3.213,4.498 4.755,7.455 l 85.98499,161.3010026 82.9,-161.3010026 c 1.542,-2.956 3.085,-5.52599998 4.756,-7.455 1.542,-2.056 4.241,-3.599 7.84,-4.755 3.599,-1.157 8.611,-1.928 15.038,-2.442 6.424,-0.514 15.292,-0.7710004 26.602,-0.7710004 39.0182,-1.660834 33.902,37.72971 17.6123,72.918334 l -87.7873,165.498669 z"
             fill="#ff764e"
             fill-rule="evenodd"
             id="path833" />
          <path
             style="opacity:1;fill:#3365b1;fill-opacity:1;stroke:#464b52;stroke-width:18.8976;stroke-miterlimit:4;stroke-dasharray:none;stroke-opacity:1"
             id="path883"
             fill-rule="evenodd"
             fill="#ffc144"
             d="m 692.64923,442.18442 c 0,7.39502 -0.259,13.62303 -0.908,18.68404 -0.649,5.06001 -1.687,9.21202 -2.854,12.32603 -1.298,3.244 -2.854,5.44901 -4.801,6.61701 -1.946,1.297 -4.022,1.946 -6.228,1.946 H 387.8736 c -10.12,0 -17.9051,-2.854 -23.3551,-8.69301 -5.449,-5.83902 -8.174,-14.40203 -8.174,-25.56005 V 430.8974 c 0,-5.19001 0.259,-9.73102 0.908,-13.88303 0.649,-4.282 1.687,-8.43401 3.244,-12.84502 1.557,-4.28201 3.763,-8.95302 6.617,-14.01303 2.984,-5.06001 6.617,-11.15802 10.8991,-18.29504 L 568.87093,69.16169 H 379.6996 c -3.114,0 -5.7091,-0.649 -7.7851,-2.076009 -2.206,-1.427 -3.893,-3.633 -5.32,-6.61701 -1.427,-3.114 -2.465,-7.13601 -3.114,-12.19602 -0.649,-5.06001 -0.909,-11.15803 -0.909,-18.294039 0,-7.525011 0.26,-13.883031 0.909,-19.073041 0.648,-5.3200076 1.687,-9.4720176 3.114,-12.5860176 1.427,-3.24401 3.114,-5.44901 5.32,-6.61702 2.076,-1.297 4.6711,-1.9460004 7.7851,-1.9460004 h 271.69053 c 10.38,0 18.0351,2.5950104 22.9651,7.9140204 4.931,5.32001 7.396,12.8450176 7.396,22.4460376 v 18.68304 c 0,6.74701 -0.259,12.71502 -0.908,17.64603 -0.649,4.93001 -1.817,9.73102 -3.503,14.402029 -1.557,4.67101 -3.763,9.47102 -6.617,14.53203 -2.725,4.93001 -6.3581,10.76902 -10.6391,17.64504 l -187.7454,298.54858 h 205.5195 c 4.801,0 8.433,2.98401 11.029,9.08202 2.465,6.09801 3.762,16.60804 3.762,31.52906 z"
             clip-rule="evenodd" />
          <path
             style="fill:#3365b1;fill-opacity:1;stroke-width:0.192756;stroke-miterlimit:4;stroke-dasharray:none"
             id="path960"
             fill-rule="evenodd"
             fill="#ff5a58"
             d="m 520.70987,620.88037 c 0,1.409 -0.0494,2.6202 -0.17309,3.609 -0.12367,0.9887 -0.32138,1.7797 -0.5439,2.4225 -0.24713,0.6179 -0.56851,1.063 -0.93931,1.3349 -0.39541,0.2719 -0.84045,0.3954 -1.31011,0.3954 h -53.91168 c -1.06298,0 -1.97748,-0.099 -2.74389,-0.2967 -0.76622,-0.1978 -1.40897,-0.5686 -1.87862,-1.1124 -0.49427,-0.5686 -0.84046,-1.3596 -1.06298,-2.4224 -0.22252,-1.0629 -0.32137,-2.4471 -0.32137,-4.128 0,-1.6067 0.0742,-2.9662 0.22252,-4.1032 0.14828,-1.1371 0.39542,-2.1506 0.79103,-3.0405 0.39542,-0.8899 0.88988,-1.7551 1.4832,-2.5954 0.61794,-0.8653 1.38416,-1.7798 2.37309,-2.7933 l 16.24022,-17.3526 c 3.23816,-3.3865 5.85838,-6.4515 7.83586,-9.2449 1.97747,-2.7685 3.53472,-5.3145 4.64712,-7.6133 1.11221,-2.2988 1.85381,-4.4 2.27404,-6.328 0.42023,-1.9281 0.61794,-3.7821 0.61794,-5.5124 0,-1.5821 -0.24733,-3.0899 -0.76642,-4.5235 -0.49427,-1.409 -1.26068,-2.645 -2.24942,-3.7078 -0.98874,-1.063 -2.22461,-1.8786 -3.73262,-2.4966 -1.48321,-0.5933 -3.23816,-0.8898 -5.28987,-0.8898 -2.84275,0 -5.36411,0.3708 -7.56391,1.0876 -2.2,0.7167 -4.12805,1.5326 -5.78415,2.4225 -1.68091,0.9147 -3.06526,1.7303 -4.17747,2.4719 -1.1124,0.7662 -1.97747,1.137 -2.5956,1.137 -0.44485,0 -0.81565,-0.1483 -1.13702,-0.445 -0.32138,-0.272 -0.56851,-0.7662 -0.76622,-1.4338 -0.17309,-0.692 -0.34599,-1.582 -0.46966,-2.7437 -0.12366,-1.137 -0.17309,-2.5214 -0.17309,-4.1526 0,-1.1124 0.0248,-2.0518 0.099,-2.818 0.074,-0.7416 0.19771,-1.3843 0.34599,-1.9528 0.12367,-0.5439 0.32137,-1.0382 0.56851,-1.4584 0.24714,-0.3956 0.66736,-0.8899 1.26049,-1.4832 0.61794,-0.5685 1.73034,-1.3101 3.33701,-2.2 1.63149,-0.9147 3.60896,-1.7798 5.98205,-2.6202 2.37309,-0.8405 4.9685,-1.5573 7.83586,-2.1506 2.84274,-0.5685 5.80895,-0.8653 8.89883,-0.8653 4.89445,0 9.14597,0.618 12.80435,1.854 3.63377,1.2359 6.67403,2.9416 9.09654,5.1414 2.42232,2.2 4.20228,4.7954 5.38873,7.8113 1.18645,3.0156 1.77977,6.2538 1.77977,9.7392 0,3.0405 -0.29657,6.0315 -0.86508,8.9731 -0.59332,2.9662 -1.80457,6.1302 -3.63377,9.5414 -1.82919,3.3864 -4.4246,7.1685 -7.76181,11.2965 -3.33701,4.1281 -7.76181,8.9235 -13.27401,14.3865 l -10.95035,11.1976 h 36.93025 c 0.49446,0 0.93931,0.1483 1.33492,0.4451 0.42023,0.2719 0.76622,0.7168 1.06298,1.3349 0.29656,0.5931 0.49446,1.3841 0.64274,2.3731 0.14828,0.9881 0.22233,2.1746 0.22233,3.5095 z"
             clip-rule="evenodd" />
          <path
             style="fill:#3365b1;fill-opacity:1;stroke-width:0.192756;stroke-miterlimit:4;stroke-dasharray:none"
             id="path982"
             fill-rule="evenodd"
             fill="#8481e2"
             d="m 586.27335,580.59507 c 0,7.3639 -0.58324,13.9986 -1.77414,19.9285 -1.19091,5.9299 -3.13504,10.985 -5.80837,15.165 -2.69757,4.1802 -6.17298,7.3881 -10.47469,9.5997 -4.30172,2.2359 -9.5755,3.3539 -15.79712,3.3539 -6.31874,0 -11.54406,-1.0694 -15.67559,-3.2323 -4.13153,-2.163 -7.41253,-5.2738 -9.81857,-9.3325 -2.43026,-4.0586 -4.13153,-9.0165 -5.1036,-14.8735 -0.97207,-5.857 -1.4582,-12.4919 -1.4582,-19.88 0,-7.3152 0.60767,-13.9501 1.8228,-19.9042 1.21513,-5.9544 3.15927,-11.0093 5.8328,-15.18948 2.69756,-4.18018 6.17297,-7.38811 10.47468,-9.59973 4.30172,-2.23585 9.55108,-3.35388 15.72405,-3.35388 6.31873,0 11.54406,1.06938 15.69982,3.23235 4.15576,2.16297 7.46098,5.27378 9.86702,9.33243 2.43046,4.05861 4.1073,9.01651 5.05514,14.87351 0.94784,5.8572 1.43397,12.4919 1.43397,19.8802 z m -18.81063,0.9721 c 0,-4.3746 -0.12153,-8.2144 -0.36459,-11.5439 -0.24307,-3.3539 -0.60767,-6.2458 -1.09361,-8.7248 -0.51036,-2.4545 -1.14225,-4.5446 -1.87144,-6.2458 -0.7292,-1.7011 -1.62839,-3.0864 -2.69776,-4.0829 -1.04514,-1.0207 -2.23585,-1.74991 -3.57252,-2.1872 -1.33666,-0.41325 -2.81929,-0.63189 -4.44748,-0.63189 -2.79486,0 -5.12802,0.68035 -6.97504,2.01719 -1.84703,1.3609 -3.281,3.3781 -4.3746,6.1001 -1.06918,2.6976 -1.8228,6.0514 -2.23585,10.0857 -0.43748,4.0344 -0.65613,8.7249 -0.65613,14.0716 0,6.5376 0.2673,11.9571 0.77766,16.2344 0.53459,4.3017 1.36089,7.7041 2.47892,10.2559 1.11802,2.5275 2.57622,4.3017 4.32594,5.3224 1.77395,1.0207 3.88847,1.5311 6.39162,1.5311 1.84702,0 3.49963,-0.2917 4.9336,-0.8992 1.43397,-0.5833 2.67334,-1.4824 3.76694,-2.6491 1.06937,-1.1909 1.96856,-2.6733 2.67333,-4.4961 0.7292,-1.7984 1.31244,-3.8885 1.74972,-6.2459 0.46171,-2.3816 0.77766,-5.0549 0.94784,-8.0442 0.17057,-2.9653 0.24345,-6.2705 0.24345,-9.8674 z"
             clip-rule="evenodd" />
          <path
             style="fill:#3365b1;fill-opacity:1;stroke-width:0.193832"
             id="path1007"
             fill-rule="evenodd"
             fill="#cbe558"
             d="m 520.43186,724.31117 c 0,1.3745 -0.075,2.5241 -0.22484,3.4737 -0.15003,0.9496 -0.34988,1.7243 -0.62473,2.2742 -0.24985,0.5747 -0.57491,0.9746 -0.89977,1.1994 -0.34987,0.2501 -0.74973,0.3749 -1.17462,0.3749 h -52.406 c -0.37487,0 -0.74973,-0.125 -1.09961,-0.3749 -0.32486,-0.2248 -0.62472,-0.6247 -0.89976,-1.1994 -0.27486,-0.5499 -0.4747,-1.3246 -0.62473,-2.2742 -0.15003,-0.9496 -0.22485,-2.0992 -0.22485,-3.4737 0,-1.3994 0.05,-2.5741 0.17484,-3.5487 0.12502,-0.9495 0.32486,-1.6993 0.59972,-2.2992 0.27485,-0.5749 0.5749,-0.9996 0.92478,-1.2746 0.32486,-0.2749 0.72474,-0.3999 1.14962,-0.3999 h 17.69357 v -61.6276 l -15.2195,8.397 c -1.09961,0.5249 -2.02419,0.8746 -2.72411,0.9996 -0.72474,0.1 -1.27445,-0.025 -1.69933,-0.4499 -0.39988,-0.4248 -0.67473,-1.1246 -0.82476,-2.1492 -0.14983,-1.0246 -0.22484,-2.474 -0.22484,-4.3234 0,-1.1746 0.025,-2.1492 0.075,-2.899 0.05,-0.7497 0.17503,-1.3994 0.37487,-1.9243 0.17503,-0.5497 0.44989,-0.9746 0.79975,-1.3245 0.32487,-0.3498 0.79976,-0.6997 1.37447,-1.0996 l 20.34268,-13.1701 c 0.24985,-0.1998 0.5497,-0.3499 0.89976,-0.4747 0.37488,-0.125 0.84976,-0.2248 1.44948,-0.2998 0.57471,-0.075 1.34946,-0.1251 2.29904,-0.1499 0.94978,-0.025 2.17422,-0.025 3.69871,-0.025 1.84935,0 3.34884,0.025 4.49845,0.1 1.14962,0.075 2.02419,0.1999 2.5991,0.3749 0.59991,0.1748 0.97478,0.3999 1.17462,0.6997 0.19984,0.2999 0.29986,0.6498 0.29986,1.0997 v 78.2465 h 15.49436 c 0.44969,0 0.84956,0.125 1.22463,0.3999 0.37487,0.2748 0.67473,0.6997 0.94958,1.2746 0.27485,0.5997 0.47489,1.3495 0.59991,2.2992 0.12463,0.9744 0.17464,2.1491 0.17464,3.5485 z"
             clip-rule="evenodd" />
          <path
             style="fill:#3365b1;fill-opacity:1;stroke-width:0.193832"
             id="path1029"
             fill-rule="evenodd"
             fill="#cbe558"
             d="m 585.90859,705.31327 c 0,4.156 -0.7292,7.8985 -2.16297,11.1552 -1.4582,3.281 -3.59674,6.0514 -6.41602,8.2873 -2.81909,2.2603 -6.34315,3.9613 -10.52313,5.128 -4.18017,1.1665 -8.99224,1.7497 -14.46043,1.7497 -5.20089,0 -9.79412,-0.5103 -13.73123,-1.5553 -3.93711,-1.0451 -7.24233,-2.576 -9.91565,-4.5932 -2.64891,-2.0172 -4.64189,-4.5204 -5.97855,-7.4854 -1.33666,-2.965 -1.99278,-6.3674 -1.99278,-10.2072 0,-2.6004 0.38882,-5.0549 1.16667,-7.3638 0.80188,-2.3088 1.94413,-4.4475 3.49963,-6.4161 1.53108,-1.9685 3.47521,-3.8155 5.7599,-5.541 2.30873,-1.7255 4.95783,-3.3781 7.94711,-4.9579 -2.43027,-1.3124 -4.61766,-2.7462 -6.56179,-4.3017 -1.94433,-1.531 -3.59694,-3.2079 -4.98206,-5.0549 -1.38531,-1.8228 -2.43026,-3.8156 -3.13503,-6.0028 -0.70477,-2.1874 -1.06937,-4.569 -1.06937,-7.1208 0,-3.694 0.65612,-7.0479 1.96855,-10.0614 1.28802,-3.0137 3.25657,-5.6384 5.83279,-7.8256 2.60044,-2.2116 5.83278,-3.9127 9.72124,-5.1036 3.9123,-1.1912 8.40842,-1.7745 13.53643,-1.7745 5.10359,0 9.45376,0.5346 13.09934,1.6284 3.62117,1.0936 6.61044,2.6489 8.94359,4.6419 2.30873,1.9928 4.03442,4.3746 5.15224,7.145 1.11803,2.7706 1.67684,5.857 1.67684,9.2109 0,2.2358 -0.36459,4.3988 -1.0936,6.5131 -0.75342,2.1143 -1.77394,4.1315 -3.1108,6.0272 -1.33666,1.8957 -2.96504,3.6698 -4.90918,5.3711 -1.94432,1.677 -4.15575,3.2081 -6.63466,4.5932 2.89216,1.5069 5.49261,3.1108 7.75268,4.8363 2.2845,1.7013 4.20441,3.5483 5.78414,5.5169 1.5555,1.9685 2.77063,4.0586 3.59693,6.2945 0.82611,2.2358 1.23917,4.6418 1.23917,7.2665 z m -20.70627,-44.6933 c 0,-1.6526 -0.24306,-3.1351 -0.70477,-4.4717 -0.48613,-1.3125 -1.21513,-2.4547 -2.23585,-3.3781 -1.02072,-0.9236 -2.2845,-1.604 -3.76693,-2.0901 -1.48242,-0.4617 -3.25656,-0.7048 -5.27377,-0.7048 -3.98576,0 -6.92638,0.9236 -8.87051,2.7462 -1.94433,1.8228 -2.9164,4.326 -2.9164,7.5583 0,1.5069 0.24307,2.9164 0.75343,4.1802 0.48613,1.288 1.26378,2.5033 2.30873,3.6211 1.02072,1.1423 2.38161,2.2601 4.03422,3.3537 1.65261,1.0936 3.62116,2.2359 5.88143,3.4754 3.45098,-2.0414 6.12431,-4.2044 7.99575,-6.5375 1.87126,-2.3088 2.79467,-4.9092 2.79467,-7.7527 z m 2.18739,45.9329 c 0,-1.7498 -0.29152,-3.3539 -0.89918,-4.7877 -0.58324,-1.4582 -1.50685,-2.8193 -2.77063,-4.0829 -1.26359,-1.288 -2.84332,-2.5275 -4.76342,-3.694 -1.89567,-1.1909 -4.10729,-2.406 -6.63486,-3.6212 -2.1872,1.1665 -4.13152,2.3574 -5.78413,3.5483 -1.67684,1.1667 -3.06215,2.4303 -4.15575,3.7185 -1.0936,1.3122 -1.91991,2.6733 -2.45449,4.1315 -0.55901,1.434 -0.82631,2.9893 -0.82631,4.6419 0,3.694 1.19071,6.5131 3.59674,8.4575 2.40604,1.9441 6.00297,2.9163 10.76619,2.9163 4.66631,0 8.14152,-0.9964 10.45025,-2.9892 2.30892,-1.9932 3.47559,-4.7394 3.47559,-8.239 z"
             clip-rule="evenodd" />
          <path
             style="opacity:0.244444;fill:#000000;fill-opacity:1;stroke-width:2.29616"
             id="path933"
             fill="#f5d953"
             d="M 880.82973,72.598995 535.89994,-99.863606 c -4.8472,-2.424754 -10.1238,-3.634834 -15.4026,-3.634834 v 871.49076 c 5.226,0 10.4544,-1.18942 15.2649,-3.56824 153.36539,-75.82853 261.06459,-213.40091 320.10359,-408.89174 29.5264,-97.76837 40.1898,-189.90656 43.9348,-249.98339 0.8634,-13.795353 -6.6083,-26.770977 -18.9709,-32.949955 z" />
        </g>
      </g>
    </g>
  </g>
</svg>
