<?xml version="1.0" encoding="UTF-8" standalone="no"?>
<svg
   xmlns:dc="http://purl.org/dc/elements/1.1/"
   xmlns:cc="http://creativecommons.org/ns#"
   xmlns:rdf="http://www.w3.org/1999/02/22-rdf-syntax-ns#"
   xmlns:svg="http://www.w3.org/2000/svg"
   xmlns="http://www.w3.org/2000/svg"
   xmlns:sodipodi="http://sodipodi.sourceforge.net/DTD/sodipodi-0.dtd"
   xmlns:inkscape="http://www.inkscape.org/namespaces/inkscape"
   sodipodi:docname="drawing2.svg"
   inkscape:version="1.0 (4035a4f, 2020-05-01)"
   id="svg8"
   version="1.1"
   viewBox="0 0 210 297"
   height="297mm"
   width="210mm">
  <defs
     id="defs2" />
  <sodipodi:namedview
     inkscape:window-maximized="1"
     inkscape:window-y="25"
     inkscape:window-x="0"
     inkscape:window-height="1027"
     inkscape:window-width="1920"
     showgrid="false"
     inkscape:document-rotation="0"
     inkscape:current-layer="g841"
     inkscape:document-units="mm"
     inkscape:cy="801.75892"
     inkscape:cx="260.95064"
     inkscape:zoom="1.23"
     inkscape:pageshadow="2"
     inkscape:pageopacity="0.0"
     borderopacity="1.0"
     bordercolor="#666666"
     pagecolor="#ffffff"
     id="base" />
  <metadata
     id="metadata5">
    <rdf:RDF>
      <cc:Work
         rdf:about="">
        <dc:format>image/svg+xml</dc:format>
        <dc:type
           rdf:resource="http://purl.org/dc/dcmitype/StillImage" />
        <dc:title />
      </cc:Work>
    </rdf:RDF>
  </metadata>
  <g
     id="layer1"
     inkscape:groupmode="layer"
     inkscape:label="Layer 1">
    <g
       transform="matrix(0.26458333,0,0,0.26458333,19.201152,44.903572)"
       id="g841">
      <g
         transform="translate(-115.62751,533.52928)"
         id="g898" />
      <g
         inkscape:export-ydpi="800"
         inkscape:export-xdpi="800"
         inkscape:export-filename="/Users/lucaagozzino/Desktop/Fantacalcio/Logos/New Logos/luca.png"
         id="g932">
        <g
           id="g916">
          <rect
             y="403.34244"
             x="-34.591553"
             height="521.13776"
             width="521.13782"
             id="rect1096"
             style="opacity:0;fill:#3365b1;fill-opacity:1;stroke:#464b52;stroke-width:0.152343;stroke-linecap:round;stroke-linejoin:round;stroke-miterlimit:4;stroke-dasharray:none;stroke-opacity:1;paint-order:stroke fill markers" />
          <g
             transform="matrix(0.99485798,0,0,0.99485798,-28.417346,408.73676)"
             id="g925">
            <path
               id="path923"
               fill="#464b52"
               d="m 256,512 c -1.809,0 -3.616,-0.327 -5.335,-0.98 C 196.492,490.405 151.128,456.769 115.833,411.047 87.825,374.764 66.153,330.906 51.419,280.693 26.518,195.826 29.985,122.728 30.146,119.658 c 0.28,-5.394 3.44,-10.221 8.271,-12.636 L 249.292,1.583 c 4.223,-2.111 9.193,-2.111 13.416,0 l 210.875,105.438 c 4.831,2.415 7.991,7.242 8.271,12.636 0.16,3.07 3.628,76.168 -21.273,161.035 -14.734,50.214 -36.406,94.071 -64.414,130.354 -35.295,45.722 -80.659,79.357 -134.832,99.973 C 259.616,511.672 257.808,512 256,512 Z" />
          </g>
          <path
             style="stroke-width:0.994856"
             id="path927"
             fill="#292b2f"
             d="M 442.73047,515.20746 232.9398,410.31162 c -2.10014,-1.04957 -4.38732,-1.57486 -6.6735,-1.57486 v 509.36729 c 1.7987,0 3.5974,-0.32532 5.30657,-0.97496 53.89444,-20.509 99.02518,-53.97204 134.13869,-99.45894 27.86398,-36.09643 49.42454,-79.72891 64.08279,-129.68371 24.77296,-84.43062 21.32378,-157.15275 21.1636,-160.20696 -0.27755,-5.36726 -3.42131,-10.16944 -8.22748,-12.57202 z" />
          <path
             style="fill:#ffd900;fill-opacity:1;stroke-width:0.995632;stroke-miterlimit:4;stroke-dasharray:none"
             d="m 226.2663,853.06521 c -2.2643,0 -4.53059,-0.51534 -6.61382,-1.54601 C 153.20393,818.66501 106.54111,759.05909 80.961321,674.35887 68.167448,631.99483 63.548318,592.07516 61.926703,566.04769 c -0.373071,-5.97711 2.864193,-11.59706 8.22051,-14.27522 L 219.59378,477.04968 c 4.20129,-2.09915 9.14573,-2.10014 13.34702,0 l 149.44757,74.72279 c 5.35631,2.67716 8.59358,8.2991 8.22051,14.27621 -1.62261,26.02946 -6.24174,65.95013 -19.03561,108.31019 -25.57979,84.70022 -72.24261,144.30614 -138.69117,177.16033 -2.08621,1.03067 -4.35151,1.54601 -6.6158,1.54601 z"
             fill="#faf139"
             id="path929" />
          <path
             style="fill:#3365b1;fill-opacity:1;stroke-width:0.0835153;stroke-miterlimit:4;stroke-dasharray:none"
             id="path960"
             fill-rule="evenodd"
             fill="#ff5a58"
             d="m 226.35838,789.32609 c 0,0.61047 -0.0214,1.13525 -0.075,1.56367 -0.0536,0.42837 -0.13925,0.77109 -0.23566,1.04959 -0.10707,0.26772 -0.24632,0.46057 -0.40697,0.57837 -0.17132,0.11781 -0.36414,0.17132 -0.56763,0.17132 h -23.35829 c -0.46056,0 -0.85678,-0.0429 -1.18884,-0.12855 -0.33198,-0.0857 -0.61047,-0.24636 -0.81395,-0.48197 -0.21416,-0.24636 -0.36415,-0.58908 -0.46056,-1.04955 -0.0964,-0.46053 -0.13924,-1.06026 -0.13924,-1.78854 0,-0.69614 0.0322,-1.28517 0.0964,-1.77779 0.0642,-0.49267 0.17132,-0.93179 0.34273,-1.31736 0.17132,-0.38557 0.38556,-0.76043 0.64263,-1.12451 0.26773,-0.3749 0.59971,-0.77113 1.02818,-1.21025 l 7.0364,-7.51835 c 1.40299,-1.46727 2.53825,-2.79524 3.39503,-4.00553 0.85678,-1.19951 1.53149,-2.30262 2.01346,-3.29862 0.48189,-0.996 0.8032,-1.90638 0.98527,-2.74173 0.18208,-0.83538 0.26774,-1.63866 0.26774,-2.38835 0,-0.68548 -0.10716,-1.33876 -0.33207,-1.95989 -0.21415,-0.61048 -0.54621,-1.146 -0.9746,-1.60648 -0.4284,-0.46057 -0.96386,-0.81394 -1.61723,-1.0817 -0.64263,-0.25706 -1.403,-0.38553 -2.29194,-0.38553 -1.23168,0 -2.32411,0.16066 -3.27722,0.47123 -0.95319,0.31052 -1.78855,0.66403 -2.50609,1.04959 -0.72829,0.39632 -1.32809,0.74969 -1.80997,1.071 -0.48197,0.33197 -0.85678,0.49263 -1.1246,0.49263 -0.19274,0 -0.35339,-0.0642 -0.49263,-0.1928 -0.13925,-0.11785 -0.24632,-0.33198 -0.33198,-0.62123 -0.075,-0.29982 -0.14991,-0.68543 -0.20349,-1.18876 -0.0536,-0.49263 -0.075,-1.09244 -0.075,-1.79919 0,-0.48197 0.0107,-0.88899 0.0429,-1.22096 0.0321,-0.32131 0.0857,-0.59977 0.1499,-0.84609 0.0536,-0.23565 0.13924,-0.44982 0.24632,-0.63188 0.10708,-0.1714 0.28915,-0.38556 0.54613,-0.64262 0.26774,-0.24631 0.74971,-0.56763 1.44583,-0.95319 0.70687,-0.39632 1.56365,-0.77114 2.59184,-1.13526 1.02819,-0.36416 2.1527,-0.67473 3.39504,-0.93179 1.23167,-0.24631 2.51684,-0.3749 3.85559,-0.3749 2.12062,0 3.96267,0.26776 5.54773,0.80328 1.57441,0.53548 2.89166,1.2745 3.94126,2.22761 1.04952,0.95319 1.82072,2.0777 2.33477,3.3844 0.51405,1.30657 0.77112,2.70958 0.77112,4.2197 0,1.31735 -0.12849,2.61326 -0.37481,3.88777 -0.25707,1.28516 -0.78187,2.65603 -1.5744,4.13399 -0.79254,1.46723 -1.91705,3.1059 -3.36296,4.89443 -1.44582,1.78858 -3.36296,3.86628 -5.75122,6.23324 l -4.74446,4.85157 h 16.00076 c 0.21423,0 0.40697,0.0643 0.57838,0.19285 0.18207,0.11781 0.33198,0.31057 0.46055,0.57837 0.12849,0.25698 0.21424,0.59969 0.27848,1.0282 0.0642,0.42811 0.0963,0.94218 0.0963,1.52056 z"
             clip-rule="evenodd" />
          <path
             style="fill:#3365b1;fill-opacity:1;stroke-width:0.0835153;stroke-miterlimit:4;stroke-dasharray:none"
             id="path982"
             fill-rule="evenodd"
             fill="#8481e2"
             d="m 254.76504,771.87169 c 0,3.19056 -0.2527,6.06517 -0.76868,8.63441 -0.51599,2.56925 -1.35832,4.75947 -2.51659,6.57054 -1.16877,1.81115 -2.67456,3.20104 -4.53836,4.15925 -1.86381,0.96875 -4.14878,1.45315 -6.84441,1.45315 -2.73772,0 -5.00169,-0.46334 -6.79176,-1.40046 -1.79007,-0.93716 -3.21162,-2.28498 -4.25409,-4.04349 -1.05296,-1.75847 -1.79006,-3.90657 -2.21123,-6.44423 -0.42117,-2.53766 -0.6318,-5.41236 -0.6318,-8.6134 0,-3.16945 0.26329,-6.04415 0.78977,-8.62388 0.52648,-2.57986 1.36881,-4.77 2.52717,-6.58114 1.16877,-1.81115 2.67456,-3.20105 4.53836,-4.15927 1.86381,-0.96873 4.13819,-1.45314 6.81275,-1.45314 2.73772,0 5.00169,0.46333 6.80226,1.40048 1.80056,0.93715 3.23261,2.28497 4.27508,4.04346 1.05304,1.75847 1.77956,3.90658 2.19024,6.44424 0.41067,2.53774 0.62129,5.41236 0.62129,8.61348 z m -8.15007,0.42118 c 0,-1.89538 -0.0527,-3.55904 -0.15797,-5.00162 -0.10531,-1.45314 -0.26328,-2.70611 -0.47383,-3.78019 -0.22112,-1.06346 -0.4949,-1.96903 -0.81083,-2.70611 -0.31594,-0.73704 -0.70554,-1.33724 -1.16886,-1.769 -0.45283,-0.44223 -0.96873,-0.75818 -1.54787,-0.94764 -0.57913,-0.17905 -1.22151,-0.27378 -1.92695,-0.27378 -1.21093,0 -2.22182,0.29477 -3.02207,0.87398 -0.80027,0.58964 -1.42156,1.46363 -1.89539,2.64299 -0.46324,1.16879 -0.78976,2.62189 -0.96872,4.36983 -0.18955,1.74798 -0.28428,3.78023 -0.28428,6.09679 0,2.83255 0.11581,5.18065 0.33693,7.03387 0.23163,1.8638 0.58964,3.33796 1.07404,4.44357 0.48441,1.09509 1.1162,1.8638 1.8743,2.30604 0.7686,0.44224 1.68476,0.66338 2.7693,0.66338 0.80025,0 1.51628,-0.12639 2.13757,-0.3896 0.6213,-0.25273 1.15828,-0.64228 1.63211,-1.14777 0.46332,-0.51598 0.85291,-1.15826 1.15827,-1.94803 0.31594,-0.77919 0.56864,-1.68477 0.7581,-2.70616 0.20004,-1.03187 0.33693,-2.19013 0.41067,-3.4853 0.0739,-1.28478 0.10548,-2.71682 0.10548,-4.27525 z"
             clip-rule="evenodd" />
          <path
             style="fill:#3365b1;fill-opacity:1;stroke-width:0.0839815"
             id="path1007"
             fill-rule="evenodd"
             fill="#cbe558"
             d="m 226.23793,834.1395 c 0,0.59553 -0.0325,1.09362 -0.0974,1.50505 -0.065,0.41143 -0.15159,0.74709 -0.27067,0.98534 -0.10826,0.249 -0.24909,0.42226 -0.38985,0.51966 -0.15158,0.10836 -0.32483,0.16244 -0.50892,0.16244 h -22.70593 c -0.16242,0 -0.32483,-0.0542 -0.47642,-0.16244 -0.14076,-0.0974 -0.27068,-0.27066 -0.38984,-0.51966 -0.11909,-0.23825 -0.20568,-0.57391 -0.27068,-0.98534 -0.065,-0.41143 -0.0974,-0.90952 -0.0974,-1.50505 0,-0.60632 0.0217,-1.11528 0.0757,-1.53754 0.0542,-0.41139 0.14075,-0.73626 0.25984,-0.99618 0.11909,-0.24908 0.24909,-0.43309 0.40068,-0.55224 0.14075,-0.11911 0.31401,-0.17327 0.4981,-0.17327 h 7.66608 v -26.70136 l -6.59414,3.63817 c -0.47643,0.22742 -0.87702,0.37893 -1.18028,0.43309 -0.314,0.0433 -0.55218,-0.0108 -0.73626,-0.19493 -0.17326,-0.18405 -0.29234,-0.48725 -0.35735,-0.93118 -0.0649,-0.44393 -0.0974,-1.07191 -0.0974,-1.8732 0,-0.50891 0.0108,-0.93118 0.0325,-1.25604 0.0217,-0.32483 0.0758,-0.60632 0.16242,-0.83374 0.0758,-0.23817 0.19492,-0.42227 0.34651,-0.57387 0.14075,-0.15156 0.34651,-0.30316 0.59551,-0.47642 l 8.81387,-5.70621 c 0.10825,-0.0866 0.23817,-0.1516 0.38984,-0.20567 0.16242,-0.0542 0.36817,-0.0974 0.62801,-0.12989 0.24901,-0.0325 0.58468,-0.0542 0.99611,-0.065 0.41151,-0.0108 0.94202,-0.0108 1.60253,-0.0108 0.80127,0 1.45095,0.0108 1.94904,0.0433 0.4981,0.0325 0.87702,0.0866 1.12612,0.16244 0.25992,0.0757 0.42234,0.17326 0.50892,0.30316 0.0866,0.12993 0.12992,0.28153 0.12992,0.47646 v 33.90183 h 6.71324 c 0.19483,0 0.36809,0.0542 0.53059,0.17326 0.16242,0.11906 0.29234,0.30316 0.41143,0.55225 0.11908,0.25983 0.20575,0.58469 0.25992,0.99617 0.054,0.42218 0.0757,0.93114 0.0757,1.53746 z"
             clip-rule="evenodd" />
          <path
             style="fill:#3365b1;fill-opacity:1;stroke-width:0.0839815"
             id="path1029"
             fill-rule="evenodd"
             fill="#cbe558"
             d="m 254.607,825.90829 c 0,1.80067 -0.31594,3.42218 -0.93715,4.83321 -0.63179,1.42155 -1.55836,2.62188 -2.77986,3.59063 -1.22143,0.97932 -2.7483,1.71631 -4.55936,2.22181 -1.81114,0.50541 -3.89606,0.75809 -6.26526,0.75809 -2.25339,0 -4.24349,-0.2211 -5.94932,-0.67386 -1.70583,-0.45281 -3.13788,-1.11611 -4.29615,-1.9901 -1.14769,-0.87399 -2.01119,-1.95855 -2.59033,-3.24319 -0.57913,-1.28465 -0.86341,-2.7588 -0.86341,-4.42247 0,-1.12668 0.16847,-2.19014 0.50549,-3.19051 0.34743,-1.00034 0.84233,-1.92697 1.51628,-2.7799 0.66337,-0.85289 1.5057,-1.65314 2.49559,-2.40075 1.0003,-0.74761 2.14808,-1.46363 3.44324,-2.14811 -1.05296,-0.56862 -2.00069,-1.18984 -2.84302,-1.86379 -0.84242,-0.66334 -1.55845,-1.38989 -2.15858,-2.19014 -0.60021,-0.78976 -1.05296,-1.65318 -1.35831,-2.60083 -0.30536,-0.94773 -0.46333,-1.97961 -0.46333,-3.08522 0,-1.6005 0.28428,-3.05364 0.85292,-4.3593 0.55805,-1.30574 1.41097,-2.44295 2.52717,-3.39059 1.12669,-0.95822 2.52716,-1.69526 4.21191,-2.21124 1.69508,-0.51611 3.64311,-0.76884 5.86493,-0.76884 2.21123,0 4.09602,0.23163 5.67554,0.70554 1.56894,0.47382 2.8641,1.14769 3.87499,2.01119 1.0003,0.86342 1.74799,1.89539 2.2323,3.09572 0.48441,1.20041 0.72653,2.53765 0.72653,3.9908 0,0.9687 -0.15797,1.90586 -0.47383,2.82193 -0.32643,0.91606 -0.76859,1.79005 -1.34781,2.6114 -0.57914,0.82135 -1.28466,1.59001 -2.127,2.32713 -0.84241,0.72659 -1.80056,1.38997 -2.8746,1.99009 1.25309,0.6529 2.37979,1.34782 3.359,2.09543 0.98981,0.73712 1.82165,1.53737 2.5061,2.3903 0.67395,0.85289 1.20043,1.75847 1.55844,2.72722 0.35792,0.9687 0.53689,2.01115 0.53689,3.14835 z m -8.97139,-19.36425 c 0,-0.71602 -0.10532,-1.35834 -0.30536,-1.93745 -0.21063,-0.56866 -0.52648,-1.06354 -0.96873,-1.46363 -0.44224,-0.40016 -0.9898,-0.69496 -1.63209,-0.90557 -0.64229,-0.20004 -1.41097,-0.30537 -2.28497,-0.30537 -1.7269,0 -3.00099,0.40017 -3.84332,1.18984 -0.84242,0.78977 -1.26358,1.87433 -1.26358,3.27479 0,0.65289 0.10531,1.26358 0.32643,1.81115 0.21063,0.55805 0.54756,1.0846 1.00031,1.56891 0.44224,0.49492 1.03188,0.97923 1.7479,1.45306 0.71603,0.47382 1.56894,0.96874 2.54825,1.50578 1.4952,-0.88447 2.65347,-1.82164 3.46431,-2.8325 0.81076,-1.00033 1.21085,-2.127 1.21085,-3.35901 z m 0.94772,19.90133 c 0,-0.75814 -0.1263,-1.45314 -0.38958,-2.07436 -0.2527,-0.6318 -0.65287,-1.22152 -1.20043,-1.769 -0.54748,-0.55805 -1.23193,-1.09509 -2.06385,-1.6005 -0.82133,-0.51598 -1.77956,-1.04244 -2.87468,-1.56895 -0.94765,0.5054 -1.79006,1.02139 -2.50609,1.53737 -0.72652,0.50549 -1.32673,1.05297 -1.80056,1.61111 -0.47382,0.56854 -0.83184,1.15826 -1.06345,1.79005 -0.2422,0.62131 -0.35802,1.29517 -0.35802,2.0112 0,1.60049 0.5159,2.82192 1.55836,3.66437 1.04246,0.84232 2.6009,1.26355 4.66466,1.26355 2.02177,0 3.52748,-0.43171 4.52778,-1.29513 1.00038,-0.8636 1.50586,-2.05344 1.50586,-3.56971 z"
             clip-rule="evenodd" />
          <path
             style="fill:#3365b1;fill-opacity:1;stroke:#464b52;stroke-width:8.18775;stroke-miterlimit:4;stroke-dasharray:none;stroke-opacity:1"
             id="path883-5"
             fill-rule="evenodd"
             fill="#ffc144"
             d="m 416.33341,178.97947 c 0,3.20403 -0.11222,5.90244 -0.39341,8.09522 -0.28119,2.19235 -0.73093,3.99129 -1.23655,5.34049 -0.56239,1.40553 -1.23655,2.36089 -2.08013,2.86695 -0.84314,0.56195 -1.74261,0.84315 -2.6984,0.84315 H 284.28341 c -4.38468,0 -7.75773,-1.23656 -10.11905,-3.76642 -2.36088,-2.52987 -3.54154,-6.23996 -3.54154,-11.07439 v -7.19533 c 0,-2.24867 0.11221,-4.21615 0.3934,-6.01509 0.2812,-1.85526 0.73093,-3.6542 1.40553,-5.56536 0.6746,-1.85526 1.63039,-3.87907 2.86695,-6.07141 1.29287,-2.19236 2.86694,-4.83444 4.72224,-7.9267 l 82.6931,-131.150509 h -81.96217 c -1.3492,0 -2.47358,-0.28119 -3.37305,-0.89947 -0.95579,-0.61827 -1.68672,-1.57407 -2.30499,-2.86695 -0.61828,-1.3492 -1.06801,-3.09181 -1.3492,-5.2841597 -0.28119,-2.19235 -0.39384,-4.83444 -0.39384,-7.92625004 0,-3.26035996 0.11265,-6.01509996 0.39384,-8.26376996 0.28076,-2.3050003 0.73092,-4.1039303 1.3492,-5.4531403 0.61827,-1.40553 1.3492,-2.36089 2.30499,-2.86695 0.89947,-0.56195 2.02385,-0.84314 3.37305,-0.84314 H 398.4571 c 4.49733,0 7.81406,1.12434 9.95008,3.4289 2.13645,2.305 3.20446,5.5653603 3.20446,9.7251903 v 8.09479 c 0,2.92327 -0.11222,5.50903 -0.39341,7.6454897 -0.28119,2.13602 -0.78725,4.21615 -1.51775,6.23996 -0.6746,2.0238 -1.63039,4.1035 -2.86694,6.29628 -1.18066,2.13602 -2.75477,4.66589 -4.6096,7.64506 L 320.87958,161.38392 h 89.04534 c 2.08013,0 3.65376,1.29288 4.77853,3.93496 1.06801,2.64209 1.62996,7.19576 1.62996,13.66059 z"
             clip-rule="evenodd"
             transform="translate(-115.62751,533.52928)" />
          <path
             sodipodi:nodetypes="csccsscccsccccc"
             style="fill:#3365b1;fill-opacity:1;stroke:#464b52;stroke-width:7.52253;stroke-miterlimit:4;stroke-dasharray:none;stroke-opacity:1"
             id="path857-9"
             fill-rule="evenodd"
             fill="#00ccf2"
             d="m 360.70711,116.12561 v 73.88069 c 0,1.05227 -0.28355,2.04939 -0.89803,2.93532 -0.61447,0.83078 -1.60695,1.55083 -2.97753,2.10454 -1.37053,0.49855 -3.26102,0.94152 -5.62444,1.27375 -2.36305,0.33222 -5.29347,0.49856 -8.79098,0.49856 -3.59201,0 -6.56954,-0.1659 -8.88553,-0.49856 -2.26849,-0.33223 -4.15937,-0.7752 -5.577,-1.27375 -1.46502,-0.55371 -2.45756,-1.27376 -2.97754,-2.10454 -0.56704,-0.88593 -0.85091,-1.88305 -0.85091,-2.93532 v -73.88069 l -6.48203,-27.21399 25.62356,-11.719498 h 0.28355 c 17.15688,38.933488 7.17664,16.339402 17.15688,38.933488 z"
             clip-rule="evenodd"
             transform="translate(-115.62751,533.52928)" />
          <path
             sodipodi:nodetypes="cccsccccccscccccc"
             style="fill:#3365b1;fill-opacity:1;stroke:#464b52;stroke-width:8.22499;stroke-miterlimit:4;stroke-dasharray:none;stroke-opacity:1"
             clip-rule="evenodd"
             d="m 419.29183,167.29596 c 10.57649,17.88596 0.65025,29.49244 -12.10374,29.5061 -5.06752,0 -9.13245,-0.11237 -12.02842,-0.3371 -2.95144,-0.22473 -5.23477,-0.56183 -6.90545,-1.0677 -1.67069,-0.50586 -2.89598,-1.18005 -3.67543,-2.07897 -0.77945,-0.84297 -1.39209,-1.96705 -1.94928,-3.25905 L 346.33458,118.57464 317.64312,88.91162 272.16576,8.5461189 c -10.65411,-18.2196576 -1.21172,-26.8468059 12.1224,-26.8562609 5.12342,0 9.18835,0.112365 12.19524,0.337096 3.00689,0.22473 5.34568,0.561826 7.07226,1.067686 1.78204,0.505871 3.00732,1.180063 3.67542,2.078984 0.724,0.842957 1.3921,1.966619 2.0602,3.25947 l 33.29428,63.098264 30.00226,29.943707 z"
             fill="#ff764e"
             fill-rule="evenodd"
             id="path833-0"
             transform="translate(-115.62751,533.52928)" />
          <path
             style="opacity:0.244444;fill:#000000;fill-opacity:1;stroke-width:0.994856"
             id="path933"
             fill="#f5d953"
             d="M 382.38734,551.77247 232.93978,477.04968 c -2.10015,-1.05057 -4.38634,-1.57486 -6.67348,-1.57486 v 377.59039 c 2.26427,0 4.52957,-0.51534 6.61382,-1.54601 66.44855,-32.85419 113.11133,-92.46011 138.69113,-177.16033 12.79289,-42.36006 17.41301,-82.28073 19.03561,-108.31019 0.37408,-5.9771 -2.86318,-11.59904 -8.21952,-14.27621 z" />
        </g>
      </g>
    </g>
  </g>
</svg>
